<mxfile host="Electron" modified="2024-04-08T12:54:46.395Z" agent="Mozilla/5.0 (Windows NT 10.0; Win64; x64) AppleWebKit/537.36 (KHTML, like Gecko) draw.io/22.0.3 Chrome/114.0.5735.289 Electron/25.8.4 Safari/537.36" etag="-Kj0z7jlg8oBHoSOpvHT" version="22.0.3" type="device">
  <diagram name="Страница — 1" id="azR8QRmqHUA8yQZxJcMf">
    <mxGraphModel dx="1036" dy="637" grid="1" gridSize="10" guides="1" tooltips="1" connect="1" arrows="1" fold="1" page="1" pageScale="1" pageWidth="827" pageHeight="1169" math="0" shadow="0">
      <root>
        <mxCell id="0" />
        <mxCell id="1" parent="0" />
        <mxCell id="b_iO7yZLCP8v_wdgCkFX-1" value="" style="rounded=0;whiteSpace=wrap;html=1;" parent="1" vertex="1">
          <mxGeometry x="160" y="70" width="310" height="330" as="geometry" />
        </mxCell>
        <mxCell id="b_iO7yZLCP8v_wdgCkFX-2" value="Шапка" style="rounded=0;whiteSpace=wrap;html=1;" parent="1" vertex="1">
          <mxGeometry x="160" y="70" width="310" height="30" as="geometry" />
        </mxCell>
        <mxCell id="b_iO7yZLCP8v_wdgCkFX-3" value="" style="rounded=0;whiteSpace=wrap;html=1;" parent="1" vertex="1">
          <mxGeometry x="160" y="100" width="120" height="60" as="geometry" />
        </mxCell>
        <mxCell id="b_iO7yZLCP8v_wdgCkFX-4" value="" style="rounded=0;whiteSpace=wrap;html=1;" parent="1" vertex="1">
          <mxGeometry x="280" y="120" width="190" height="40" as="geometry" />
        </mxCell>
        <mxCell id="b_iO7yZLCP8v_wdgCkFX-5" value="" style="rounded=0;whiteSpace=wrap;html=1;" parent="1" vertex="1">
          <mxGeometry x="280" y="100" width="190" height="30" as="geometry" />
        </mxCell>
        <mxCell id="b_iO7yZLCP8v_wdgCkFX-6" value="" style="rounded=0;whiteSpace=wrap;html=1;" parent="1" vertex="1">
          <mxGeometry x="160" y="160" width="220" height="90" as="geometry" />
        </mxCell>
        <mxCell id="b_iO7yZLCP8v_wdgCkFX-7" value="" style="rounded=0;whiteSpace=wrap;html=1;" parent="1" vertex="1">
          <mxGeometry x="380" y="160" width="90" height="30" as="geometry" />
        </mxCell>
        <mxCell id="b_iO7yZLCP8v_wdgCkFX-8" value="" style="rounded=0;whiteSpace=wrap;html=1;" parent="1" vertex="1">
          <mxGeometry x="380" y="190" width="90" height="30" as="geometry" />
        </mxCell>
        <mxCell id="b_iO7yZLCP8v_wdgCkFX-9" value="" style="rounded=0;whiteSpace=wrap;html=1;" parent="1" vertex="1">
          <mxGeometry x="380" y="220" width="90" height="30" as="geometry" />
        </mxCell>
        <mxCell id="b_iO7yZLCP8v_wdgCkFX-10" value="" style="rounded=0;whiteSpace=wrap;html=1;" parent="1" vertex="1">
          <mxGeometry x="310" y="250" width="160" height="40" as="geometry" />
        </mxCell>
        <mxCell id="b_iO7yZLCP8v_wdgCkFX-12" value="" style="rounded=0;whiteSpace=wrap;html=1;" parent="1" vertex="1">
          <mxGeometry x="210" y="250" width="50" height="90" as="geometry" />
        </mxCell>
        <mxCell id="b_iO7yZLCP8v_wdgCkFX-13" value="" style="rounded=0;whiteSpace=wrap;html=1;" parent="1" vertex="1">
          <mxGeometry x="160" y="250" width="50" height="90" as="geometry" />
        </mxCell>
        <mxCell id="b_iO7yZLCP8v_wdgCkFX-14" value="" style="rounded=0;whiteSpace=wrap;html=1;" parent="1" vertex="1">
          <mxGeometry x="260" y="250" width="50" height="90" as="geometry" />
        </mxCell>
        <mxCell id="b_iO7yZLCP8v_wdgCkFX-15" value="" style="rounded=0;whiteSpace=wrap;html=1;" parent="1" vertex="1">
          <mxGeometry x="310" y="290" width="160" height="50" as="geometry" />
        </mxCell>
        <mxCell id="b_iO7yZLCP8v_wdgCkFX-16" value="Подвал" style="rounded=0;whiteSpace=wrap;html=1;" parent="1" vertex="1">
          <mxGeometry x="160" y="340" width="310" height="60" as="geometry" />
        </mxCell>
        <mxCell id="Gw48E82dJbWPTFk3ssWl-1" value="FLEX" style="text;html=1;align=center;verticalAlign=middle;resizable=0;points=[];autosize=1;strokeColor=none;fillColor=none;fontStyle=1;fontSize=30;" parent="1" vertex="1">
          <mxGeometry x="265" y="10" width="100" height="50" as="geometry" />
        </mxCell>
        <mxCell id="Gw48E82dJbWPTFk3ssWl-2" value="GRID" style="text;html=1;align=center;verticalAlign=middle;resizable=0;points=[];autosize=1;strokeColor=none;fillColor=none;fontStyle=1;fontSize=30;" parent="1" vertex="1">
          <mxGeometry x="370" y="10" width="100" height="50" as="geometry" />
        </mxCell>
        <mxCell id="TUwJpKM1cWDfyM5TzDMQ-1" value="изб в блок, ТЕКСТ ИЗБ НУЖНО СДЕЛАТЬ АДАПТИВНЫМ" style="text;html=1;align=center;verticalAlign=middle;resizable=0;points=[];autosize=1;strokeColor=none;fillColor=none;" vertex="1" parent="1">
          <mxGeometry x="460" y="70" width="350" height="30" as="geometry" />
        </mxCell>
        <mxCell id="TUwJpKM1cWDfyM5TzDMQ-2" value="АДАПТИВНУЮ СДЕЛАЛ&amp;nbsp;" style="text;html=1;align=center;verticalAlign=middle;resizable=0;points=[];autosize=1;strokeColor=none;fillColor=none;" vertex="1" parent="1">
          <mxGeometry x="475" y="90" width="160" height="30" as="geometry" />
        </mxCell>
        <mxCell id="TUwJpKM1cWDfyM5TzDMQ-3" value="МИКРОСЕТКА&lt;br&gt;" style="text;html=1;align=center;verticalAlign=middle;resizable=0;points=[];autosize=1;strokeColor=none;fillColor=none;" vertex="1" parent="1">
          <mxGeometry x="500" y="115" width="110" height="30" as="geometry" />
        </mxCell>
      </root>
    </mxGraphModel>
  </diagram>
</mxfile>
